# xmcd CD database file
#
# Track frame offsets:
#	150
#	24827
#	47857
#	77035
#	102235
#	127363
#	154376
#	185797
#
# Disc length: 2872 seconds
#
# Revision: 1
# Processed by: cddbd v1.5.2PL0 Copyright (c) Steve Scherf et al.
# Submitted via: CDex 1.51
#
DISCID=6c0b3608
DTITLE=Arnd Stein - Traumhafte Stunden Am Meer
DYEAR=2011
DGENRE=New Age
TTITLE0=Sudseetraume
TTITLE1=Copacabana
TTITLE2=Dreams Of Jamaica
TTITLE3=Chillin' Echoes
TTITLE4=Happy Hour
TTITLE5=Rendezvous
TTITLE6=Swinging Soul
TTITLE7=Alhambra
EXTD=YEAR: 2011
EXTT0=
EXTT1=
EXTT2=
EXTT3=
EXTT4=
EXTT5=
EXTT6=
EXTT7=
PLAYORDER=
